<mxfile host="app.diagrams.net" agent="Mozilla/5.0 (Windows NT 10.0; Win64; x64) AppleWebKit/537.36 (KHTML, like Gecko) Chrome/135.0.0.0 Safari/537.36" version="26.2.13">
  <diagram name="Page-1" id="dCYBpO1NdBjtp1JsTxba">
    <mxGraphModel dx="1044" dy="562" grid="1" gridSize="10" guides="1" tooltips="1" connect="1" arrows="1" fold="1" page="1" pageScale="1" pageWidth="850" pageHeight="1100" math="0" shadow="0">
      <root>
        <mxCell id="0" />
        <mxCell id="1" parent="0" />
        <mxCell id="jdfmyfd4AhLzwyPbIPoC-1" value="EC2 instance frontend" style="points=[[0,0],[0.25,0],[0.5,0],[0.75,0],[1,0],[1,0.25],[1,0.5],[1,0.75],[1,1],[0.75,1],[0.5,1],[0.25,1],[0,1],[0,0.75],[0,0.5],[0,0.25]];outlineConnect=0;gradientColor=none;html=1;whiteSpace=wrap;fontSize=12;fontStyle=0;container=1;pointerEvents=0;collapsible=0;recursiveResize=0;shape=mxgraph.aws4.group;grIcon=mxgraph.aws4.group_ec2_instance_contents;strokeColor=#D86613;fillColor=none;verticalAlign=top;align=left;spacingLeft=30;fontColor=#D86613;dashed=0;" vertex="1" parent="1">
          <mxGeometry x="50" y="360" width="130" height="130" as="geometry" />
        </mxCell>
        <mxCell id="jdfmyfd4AhLzwyPbIPoC-26" value="Backend ALB&#39;DNS" style="text;strokeColor=none;align=center;fillColor=none;html=1;verticalAlign=middle;whiteSpace=wrap;rounded=0;" vertex="1" parent="jdfmyfd4AhLzwyPbIPoC-1">
          <mxGeometry x="35" y="60" width="60" height="30" as="geometry" />
        </mxCell>
        <mxCell id="jdfmyfd4AhLzwyPbIPoC-3" value="EC2 instance frontend" style="points=[[0,0],[0.25,0],[0.5,0],[0.75,0],[1,0],[1,0.25],[1,0.5],[1,0.75],[1,1],[0.75,1],[0.5,1],[0.25,1],[0,1],[0,0.75],[0,0.5],[0,0.25]];outlineConnect=0;gradientColor=none;html=1;whiteSpace=wrap;fontSize=12;fontStyle=0;container=1;pointerEvents=0;collapsible=0;recursiveResize=0;shape=mxgraph.aws4.group;grIcon=mxgraph.aws4.group_ec2_instance_contents;strokeColor=#D86613;fillColor=none;verticalAlign=top;align=left;spacingLeft=30;fontColor=#D86613;dashed=0;" vertex="1" parent="1">
          <mxGeometry x="220" y="360" width="130" height="130" as="geometry" />
        </mxCell>
        <mxCell id="jdfmyfd4AhLzwyPbIPoC-27" value="Backend ALB&#39;DNS" style="text;strokeColor=none;align=center;fillColor=none;html=1;verticalAlign=middle;whiteSpace=wrap;rounded=0;" vertex="1" parent="jdfmyfd4AhLzwyPbIPoC-3">
          <mxGeometry x="35" y="60" width="60" height="30" as="geometry" />
        </mxCell>
        <mxCell id="jdfmyfd4AhLzwyPbIPoC-4" value="EC2 instance backend" style="points=[[0,0],[0.25,0],[0.5,0],[0.75,0],[1,0],[1,0.25],[1,0.5],[1,0.75],[1,1],[0.75,1],[0.5,1],[0.25,1],[0,1],[0,0.75],[0,0.5],[0,0.25]];outlineConnect=0;gradientColor=none;html=1;whiteSpace=wrap;fontSize=12;fontStyle=0;container=1;pointerEvents=0;collapsible=0;recursiveResize=0;shape=mxgraph.aws4.group;grIcon=mxgraph.aws4.group_ec2_instance_contents;strokeColor=#D86613;fillColor=none;verticalAlign=top;align=left;spacingLeft=30;fontColor=#D86613;dashed=0;" vertex="1" parent="1">
          <mxGeometry x="460" y="360" width="130" height="130" as="geometry" />
        </mxCell>
        <mxCell id="jdfmyfd4AhLzwyPbIPoC-5" value="EC2 instance backend" style="points=[[0,0],[0.25,0],[0.5,0],[0.75,0],[1,0],[1,0.25],[1,0.5],[1,0.75],[1,1],[0.75,1],[0.5,1],[0.25,1],[0,1],[0,0.75],[0,0.5],[0,0.25]];outlineConnect=0;gradientColor=none;html=1;whiteSpace=wrap;fontSize=12;fontStyle=0;container=1;pointerEvents=0;collapsible=0;recursiveResize=0;shape=mxgraph.aws4.group;grIcon=mxgraph.aws4.group_ec2_instance_contents;strokeColor=#D86613;fillColor=none;verticalAlign=top;align=left;spacingLeft=30;fontColor=#D86613;dashed=0;" vertex="1" parent="1">
          <mxGeometry x="670" y="360" width="130" height="130" as="geometry" />
        </mxCell>
        <mxCell id="jdfmyfd4AhLzwyPbIPoC-16" style="edgeStyle=orthogonalEdgeStyle;rounded=0;orthogonalLoop=1;jettySize=auto;html=1;" edge="1" parent="1" source="jdfmyfd4AhLzwyPbIPoC-6" target="jdfmyfd4AhLzwyPbIPoC-1">
          <mxGeometry relative="1" as="geometry">
            <Array as="points">
              <mxPoint x="115" y="220" />
            </Array>
          </mxGeometry>
        </mxCell>
        <mxCell id="jdfmyfd4AhLzwyPbIPoC-17" style="edgeStyle=orthogonalEdgeStyle;rounded=0;orthogonalLoop=1;jettySize=auto;html=1;" edge="1" parent="1" source="jdfmyfd4AhLzwyPbIPoC-6" target="jdfmyfd4AhLzwyPbIPoC-3">
          <mxGeometry relative="1" as="geometry" />
        </mxCell>
        <mxCell id="jdfmyfd4AhLzwyPbIPoC-21" style="edgeStyle=orthogonalEdgeStyle;rounded=0;orthogonalLoop=1;jettySize=auto;html=1;" edge="1" parent="1" source="jdfmyfd4AhLzwyPbIPoC-6">
          <mxGeometry relative="1" as="geometry">
            <mxPoint x="196.17999999999984" y="130" as="targetPoint" />
          </mxGeometry>
        </mxCell>
        <mxCell id="jdfmyfd4AhLzwyPbIPoC-6" value="" style="points=[];aspect=fixed;html=1;align=center;shadow=0;dashed=0;fillColor=#FF6A00;strokeColor=none;shape=mxgraph.alibaba_cloud.alb_application_load_balancer_01;" vertex="1" parent="1">
          <mxGeometry x="172.6" y="200" width="47.16" height="40" as="geometry" />
        </mxCell>
        <mxCell id="jdfmyfd4AhLzwyPbIPoC-19" style="edgeStyle=orthogonalEdgeStyle;rounded=0;orthogonalLoop=1;jettySize=auto;html=1;" edge="1" parent="1" source="jdfmyfd4AhLzwyPbIPoC-7" target="jdfmyfd4AhLzwyPbIPoC-5">
          <mxGeometry relative="1" as="geometry">
            <Array as="points">
              <mxPoint x="735" y="220" />
            </Array>
          </mxGeometry>
        </mxCell>
        <mxCell id="jdfmyfd4AhLzwyPbIPoC-20" style="edgeStyle=orthogonalEdgeStyle;rounded=0;orthogonalLoop=1;jettySize=auto;html=1;" edge="1" parent="1" source="jdfmyfd4AhLzwyPbIPoC-7" target="jdfmyfd4AhLzwyPbIPoC-4">
          <mxGeometry relative="1" as="geometry" />
        </mxCell>
        <mxCell id="jdfmyfd4AhLzwyPbIPoC-7" value="" style="points=[];aspect=fixed;html=1;align=center;shadow=0;dashed=0;fillColor=#FF6A00;strokeColor=none;shape=mxgraph.alibaba_cloud.alb_application_load_balancer_01;" vertex="1" parent="1">
          <mxGeometry x="623" y="200" width="47.400000000000006" height="40.2" as="geometry" />
        </mxCell>
        <mxCell id="jdfmyfd4AhLzwyPbIPoC-22" value="" style="ellipse;whiteSpace=wrap;html=1;" vertex="1" parent="1">
          <mxGeometry x="136.18" y="50" width="120" height="80" as="geometry" />
        </mxCell>
        <mxCell id="jdfmyfd4AhLzwyPbIPoC-23" value="Cloudflare" style="text;strokeColor=none;align=center;fillColor=none;html=1;verticalAlign=middle;whiteSpace=wrap;rounded=0;" vertex="1" parent="1">
          <mxGeometry x="166.18" y="80" width="60" height="30" as="geometry" />
        </mxCell>
        <mxCell id="jdfmyfd4AhLzwyPbIPoC-29" style="edgeStyle=orthogonalEdgeStyle;rounded=0;orthogonalLoop=1;jettySize=auto;html=1;" edge="1" parent="1" source="jdfmyfd4AhLzwyPbIPoC-28" target="jdfmyfd4AhLzwyPbIPoC-4">
          <mxGeometry relative="1" as="geometry" />
        </mxCell>
        <mxCell id="jdfmyfd4AhLzwyPbIPoC-30" style="edgeStyle=orthogonalEdgeStyle;rounded=0;orthogonalLoop=1;jettySize=auto;html=1;" edge="1" parent="1" source="jdfmyfd4AhLzwyPbIPoC-28" target="jdfmyfd4AhLzwyPbIPoC-5">
          <mxGeometry relative="1" as="geometry" />
        </mxCell>
        <mxCell id="jdfmyfd4AhLzwyPbIPoC-28" value="" style="points=[];aspect=fixed;html=1;align=center;shadow=0;dashed=0;fillColor=#FF6A00;strokeColor=none;shape=mxgraph.alibaba_cloud.mongodb;" vertex="1" parent="1">
          <mxGeometry x="610" y="570" width="47.400000000000006" height="47.400000000000006" as="geometry" />
        </mxCell>
      </root>
    </mxGraphModel>
  </diagram>
</mxfile>
